HIERARCHY
ROOT Hips
{
	OFFSET 0.000003 96.368652 -0.035689
	CHANNELS 6 Xposition Yposition Zposition Xrotation Yrotation Zrotation
	JOINT Spine
	{
		OFFSET 0.000010 9.226303 1.577100
		CHANNELS 6 Xposition Yposition Zposition Xrotation Yrotation Zrotation
		JOINT Spine1
		{
			OFFSET 0.000000 16.253998 -0.165600
			CHANNELS 6 Xposition Yposition Zposition Xrotation Yrotation Zrotation
			JOINT Spine2
			{
				OFFSET -0.000000 13.639587 -1.292299
				CHANNELS 6 Xposition Yposition Zposition Xrotation Yrotation Zrotation
				JOINT Neck
				{
					OFFSET 0.000000 13.877411 -4.354199
					CHANNELS 6 Xposition Yposition Zposition Xrotation Yrotation Zrotation
					JOINT Neck1
					{
						OFFSET 0.000000 4.339996 0.926899
						CHANNELS 6 Xposition Yposition Zposition Xrotation Yrotation Zrotation
						JOINT Head
						{
							OFFSET 0.000000 4.026611 0.858500
							CHANNELS 6 Xposition Yposition Zposition Xrotation Yrotation Zrotation
							JOINT HeadTop_End
							{
								OFFSET 0.000000 21.748810 0.000000
								CHANNELS 6 Xposition Yposition Zposition Xrotation Yrotation Zrotation
								End Site
								{
									OFFSET 0.000000 11.825378 0.000000
								}
							}
							JOINT L_Eye
							{
								OFFSET 3.005700 7.261795 7.955601
								CHANNELS 6 Xposition Yposition Zposition Xrotation Yrotation Zrotation
								End Site
								{
									OFFSET 0.000000 11.825378 0.000000
								}
							}
							JOINT R_Eye
							{
								OFFSET -3.005700 7.261795 7.955601
								CHANNELS 6 Xposition Yposition Zposition Xrotation Yrotation Zrotation
								End Site
								{
									OFFSET 0.000000 11.825378 0.000000
								}
							}
							JOINT Jaw
							{
								OFFSET 0.000000 2.030289 2.456200
								CHANNELS 6 Xposition Yposition Zposition Xrotation Yrotation Zrotation
								End Site
								{
									OFFSET 0.000000 11.825378 0.000000
								}
							}
						}
					}
				}
				JOINT L_Shoulder
				{
					OFFSET 6.144200 10.187012 -3.793198
					CHANNELS 6 Xposition Yposition Zposition Xrotation Yrotation Zrotation
					JOINT L_Arm
					{
						OFFSET 12.319103 -1.112991 -1.793500
						CHANNELS 3 Xrotation Yrotation Zrotation
						JOINT L_ForeArm
						{
							OFFSET 27.687006 -0.000015 -0.000000
							CHANNELS 3 Xrotation Yrotation Zrotation
							JOINT L_Hand
							{
								OFFSET 27.873787 0.000031 -0.000000
								CHANNELS 3 Xrotation Yrotation Zrotation
								JOINT L_HandThumb1
								{
									OFFSET 2.421021 -1.395554 2.392360
									CHANNELS 6 Xposition Yposition Zposition Xrotation Yrotation Zrotation
									JOINT L_HandThumb2
									{
										OFFSET 3.496521 -2.018692 2.018717
										CHANNELS 6 Xposition Yposition Zposition Xrotation Yrotation Zrotation
										JOINT L_HandThumb3
										{
											OFFSET 4.011398 -2.315994 2.315975
											CHANNELS 6 Xposition Yposition Zposition Xrotation Yrotation Zrotation
											JOINT L_HandThumb4
											{
												OFFSET 2.095787 -1.210007 1.209984
												CHANNELS 6 Xposition Yposition Zposition Xrotation Yrotation Zrotation
												End Site
												{
													OFFSET 1.877617 -1.197205 1.536803
												}
											}
										}
									}
								}
								JOINT L_HandIndex1
								{
									OFFSET 10.514771 -0.231369 2.264849
									CHANNELS 6 Xposition Yposition Zposition Xrotation Yrotation Zrotation
									JOINT L_HandIndex2
									{
										OFFSET 5.549301 0.000000 0.000000
										CHANNELS 3 Xrotation Yrotation Zrotation
										JOINT L_HandIndex3
										{
											OFFSET 3.391098 0.000000 0.000001
											CHANNELS 3 Xrotation Yrotation Zrotation
											JOINT L_HandIndex4
											{
												OFFSET 2.334351 0.000000 0.000011
												CHANNELS 6 Xposition Yposition Zposition Xrotation Yrotation Zrotation
												End Site
												{
													OFFSET 2.334351 0.000000 0.000101
												}
											}
										}
									}
								}
								JOINT L_HandMiddle1
								{
									OFFSET 10.490761 -0.000015 0.000002
									CHANNELS 6 Xposition Yposition Zposition Xrotation Yrotation Zrotation
									JOINT L_HandMiddle2
									{
										OFFSET 5.792099 0.000000 0.000000
										CHANNELS 3 Xrotation Yrotation Zrotation
										JOINT L_HandMiddle3
										{
											OFFSET 3.713196 0.000000 0.000000
											CHANNELS 3 Xrotation Yrotation Zrotation
											JOINT L_HandMiddle4
											{
												OFFSET 2.752045 -0.000031 0.000022
												CHANNELS 6 Xposition Yposition Zposition Xrotation Yrotation Zrotation
												End Site
												{
													OFFSET 2.752045 0.000031 -0.003599
												}
											}
										}
									}
								}
								JOINT L_HandRing1
								{
									OFFSET 10.240753 -0.046051 -2.314147
									CHANNELS 6 Xposition Yposition Zposition Xrotation Yrotation Zrotation
									JOINT L_HandRing2
									{
										OFFSET 5.445206 -0.000015 0.000676
										CHANNELS 3 Xrotation Yrotation Zrotation
										JOINT L_HandRing3
										{
											OFFSET 3.713196 0.000015 -0.000674
											CHANNELS 3 Xrotation Yrotation Zrotation
											JOINT L_HandRing4
											{
												OFFSET 2.280716 0.000000 -0.000046
												CHANNELS 3 Xrotation Yrotation Zrotation
												End Site
												{
													OFFSET 2.280716 -0.000061 0.003501
												}
											}
										}
									}
								}
								JOINT L_HandPinky1
								{
									OFFSET 9.820259 -0.209747 -4.418469
									CHANNELS 6 Xposition Yposition Zposition Xrotation Yrotation Zrotation
									JOINT L_HandPinky2
									{
										OFFSET 3.676300 0.000000 0.000000
										CHANNELS 3 Xrotation Yrotation Zrotation
										JOINT L_HandPinky3
										{
											OFFSET 2.811295 0.000000 0.000001
											CHANNELS 3 Xrotation Yrotation Zrotation
											JOINT L_HandPinky4
											{
												OFFSET 1.659546 0.000000 0.000000
												CHANNELS 3 Xrotation Yrotation Zrotation
												End Site
												{
													OFFSET 1.659546 0.000015 -0.001891
												}
											}
										}
									}
								}
							}
						}
					}
				}
				JOINT R_Shoulder
				{
					OFFSET -6.140200 10.187012 -3.793198
					CHANNELS 6 Xposition Yposition Zposition Xrotation Yrotation Zrotation
					JOINT R_Arm
					{
						OFFSET -12.323095 -1.113007 -1.793499
						CHANNELS 3 Xrotation Yrotation Zrotation
						JOINT R_ForeArm
						{
							OFFSET -27.687002 0.000015 -0.000002
							CHANNELS 3 Xrotation Yrotation Zrotation
							JOINT R_Hand
							{
								OFFSET -27.873795 -0.000015 0.000000
								CHANNELS 3 Xrotation Yrotation Zrotation
								JOINT R_HandPinky1
								{
									OFFSET -9.791023 -0.212921 -4.378341
									CHANNELS 6 Xposition Yposition Zposition Xrotation Yrotation Zrotation
									JOINT R_HandPinky2
									{
										OFFSET -3.652802 0.000000 0.000000
										CHANNELS 3 Xrotation Yrotation Zrotation
										JOINT R_HandPinky3
										{
											OFFSET -2.781998 0.000000 0.000000
											CHANNELS 3 Xrotation Yrotation Zrotation
											JOINT R_HandPinky4
											{
												OFFSET -1.612122 0.000198 0.000004
												CHANNELS 3 Xrotation Yrotation Zrotation
												End Site
												{
													OFFSET -1.612106 0.000320 -0.007100
												}
											}
										}
									}
								}
								JOINT R_HandRing1
								{
									OFFSET -10.391914 0.105164 -2.349891
									CHANNELS 6 Xposition Yposition Zposition Xrotation Yrotation Zrotation
									JOINT R_HandRing2
									{
										OFFSET -5.401306 0.000000 0.000000
										CHANNELS 3 Xrotation Yrotation Zrotation
										JOINT R_HandRing3
										{
											OFFSET -3.391602 0.000000 0.000000
											CHANNELS 3 Xrotation Yrotation Zrotation
											JOINT R_HandRing4
											{
												OFFSET -2.353172 0.000305 -0.000032
												CHANNELS 3 Xrotation Yrotation Zrotation
												End Site
												{
													OFFSET -2.353180 0.000275 0.001400
												}
											}
										}
									}
								}
								JOINT R_HandMiddle1
								{
									OFFSET -10.779236 0.000000 0.000001
									CHANNELS 6 Xposition Yposition Zposition Xrotation Yrotation Zrotation
									JOINT R_HandMiddle2
									{
										OFFSET -5.616806 0.000000 0.000000
										CHANNELS 3 Xrotation Yrotation Zrotation
										JOINT R_HandMiddle3
										{
											OFFSET -3.736397 0.000000 0.000000
											CHANNELS 3 Xrotation Yrotation Zrotation
											JOINT R_HandMiddle4
											{
												OFFSET -2.691521 0.000336 -0.000028
												CHANNELS 3 Xrotation Yrotation Zrotation
												End Site
												{
													OFFSET -2.691513 0.000214 0.009200
												}
											}
										}
									}
								}
								JOINT R_HandIndex1
								{
									OFFSET -10.577324 -0.175369 2.287349
									CHANNELS 6 Xposition Yposition Zposition Xrotation Yrotation Zrotation
									JOINT R_HandIndex2
									{
										OFFSET -5.376801 0.000000 0.000001
										CHANNELS 3 Xrotation Yrotation Zrotation
										JOINT R_HandIndex3
										{
											OFFSET -3.385498 0.000000 0.000001
											CHANNELS 3 Xrotation Yrotation Zrotation
											JOINT R_HandIndex4
											{
												OFFSET -2.363556 0.000305 0.000042
												CHANNELS 3 Xrotation Yrotation Zrotation
												End Site
												{
													OFFSET -2.363548 0.000381 -0.006501
												}
											}
										}
									}
								}
								JOINT R_HandThumb1
								{
									OFFSET -2.570442 -1.245102 2.319054
									CHANNELS 6 Xposition Yposition Zposition Xrotation Yrotation Zrotation
									JOINT R_HandThumb2
									{
										OFFSET -3.518791 -2.031555 2.031563
										CHANNELS 6 Xposition Yposition Zposition Xrotation Yrotation Zrotation
										JOINT R_HandThumb3
										{
											OFFSET -3.945267 -2.277756 2.277756
											CHANNELS 6 Xposition Yposition Zposition Xrotation Yrotation Zrotation
											JOINT R_HandThumb4
											{
												OFFSET -2.055496 -1.186386 1.186664
												CHANNELS 3 Xrotation Yrotation Zrotation
												End Site
												{
													OFFSET -1.840202 -1.174805 1.508071
												}
											}
										}
									}
								}
							}
						}
					}
				}
			}
		}
	}
	JOINT L_UpLeg
	{
		OFFSET 9.633796 -3.273308 -0.000000
		CHANNELS 6 Xposition Yposition Zposition Xrotation Yrotation Zrotation
		JOINT L_Leg
		{
			OFFSET -0.006490 -41.762173 -0.553830
			CHANNELS 3 Xrotation Yrotation Zrotation
			JOINT L_Foot
			{
				OFFSET 0.006493 -39.146984 -2.021915
				CHANNELS 3 Xrotation Yrotation Zrotation
				JOINT L_ToeBase
				{
					OFFSET -0.183300 -12.185708 8.282301
					CHANNELS 6 Xposition Yposition Zposition Xrotation Yrotation Zrotation
					JOINT L_Toe_End
					{
						OFFSET -0.094684 -0.116787 6.663326
						CHANNELS 3 Xrotation Yrotation Zrotation
						End Site
						{
							OFFSET -0.094684 -0.116787 6.663328
						}
					}
				}
			}
		}
	}
	JOINT R_UpLeg
	{
		OFFSET -9.633803 -3.273293 0.000000
		CHANNELS 6 Xposition Yposition Zposition Xrotation Yrotation Zrotation
		JOINT R_Leg
		{
			OFFSET -0.006491 -41.762146 -0.555884
			CHANNELS 3 Xrotation Yrotation Zrotation
			JOINT R_Foot
			{
				OFFSET 0.006493 -39.147087 -2.019920
				CHANNELS 3 Xrotation Yrotation Zrotation
				JOINT R_ToeBase
				{
					OFFSET -0.183299 -12.185700 8.282300
					CHANNELS 6 Xposition Yposition Zposition Xrotation Yrotation Zrotation
					JOINT R_Toe_End
					{
						OFFSET 0.094687 -0.116863 6.675869
						CHANNELS 3 Xrotation Yrotation Zrotation
						End Site
						{
							OFFSET 0.094687 -0.116863 6.675869
						}
					}
				}
			}
		}
	}
}
MOTION
Frames: 4
Frame Time: 0.033333
-0.003461 94.081940 -0.034920 -7.206918 -6.722425 2.515794 0.000011 9.226314 1.577100 5.300890 2.033439 -1.910257 0.000000 16.253990 -0.165600 1.464032 0.754856 -0.644032 -0.000000 13.639592 -1.292297 1.462536 0.766247 -0.614887 -0.000000 13.877373 -4.354191 2.280427 5.388036 1.629664 -0.000001 4.340012 0.926901 0.000000 -0.000000 0.000000 -0.000001 4.026605 0.858501 3.262428 -10.648694 2.519839 -0.000001 21.748795 -0.000002 -0.000000 -0.000001 0.000000 3.005698 7.261765 7.955601 -0.000000 -0.000001 0.000000 -3.005703 7.261765 7.955602 -0.000000 -0.000001 0.000000 -0.000001 2.030273 2.456199 -0.000000 -0.000001 0.000000 6.144194 10.187011 -3.793194 0.156801 -12.684404 -17.418765 5.694483 -1.503873 -42.123283 0.001008 -86.454274 0.000948 -124.546095 -2.343157 13.457174 2.421035 -1.395559 2.392355 -12.799926 -17.469916 4.121402 3.496513 -2.018701 2.018718 1.012370 0.758817 -1.430639 4.011408 -2.315997 2.315970 -7.340078 -0.433432 13.194443 2.095777 -1.209997 1.209988 -0.000003 -0.000001 0.000004 10.514773 -0.231377 2.264850 -3.532281 4.254782 -63.954572 3.402384 5.315924 -65.218929 1.034740 3.326378 -34.549825 2.334340 0.000016 0.000007 -0.000000 0.000001 -0.000005 10.490766 -0.000030 0.000002 2.434685 7.296470 -69.364048 3.298116 5.266758 -64.088635 0.787181 2.935135 -30.019542 2.752052 -0.000050 0.000026 0.000001 0.000002 -0.000003 10.240772 -0.046051 -2.314146 4.724396 8.077483 -77.583033 2.048505 4.443364 -49.517208 1.539319 3.969533 -42.490515 -0.000001 0.000003 -0.000005 9.820263 -0.209746 -4.418469 6.410704 8.364179 -80.414556 1.722859 4.150229 -45.074375 0.636318 2.657341 -26.928197 -0.000002 0.000000 0.000001 -6.140202 10.186976 -3.793193 0.747229 18.499156 11.537655 10.691059 23.556247 38.362154 0.000305 97.832365 -0.000239 -34.548654 -20.181414 22.178493 -9.791022 -0.212902 -4.378334 8.373886 -8.172458 73.989923 2.174005 -3.941573 57.745370 1.042250 -2.938402 39.057146 0.000000 0.000000 0.000002 -10.391910 0.105164 -2.349886 6.934852 -8.544921 63.908707 2.909737 -4.318058 67.934701 1.862490 -3.727292 53.106678 0.000000 -0.000001 -0.000001 -10.779234 0.000010 0.000000 0.771179 -5.200181 54.618806 5.564713 -4.568927 101.238594 4.771578 -4.656489 91.415040 -0.000002 -0.000001 0.000000 -10.577324 -0.175347 2.287349 -0.887073 1.427836 12.684544 1.917698 -3.768025 53.934292 3.059385 -4.375571 69.904117 0.000002 -0.000001 0.000002 -2.570436 -1.245124 2.319046 20.470914 7.475355 18.844089 -3.518810 -2.031540 2.031562 4.151657 -12.160716 -33.848085 -3.945255 -2.277750 2.277776 -6.266985 -41.956257 -36.488544 -0.000000 0.000002 0.000002 9.633795 -3.273292 -0.000000 -8.532121 11.737332 5.040753 11.625593 7.590984 1.462655 5.118781 0.123049 -5.783497 -0.183299 -12.185703 8.282299 -0.000098 0.000002 0.000001 0.000000 -0.000000 0.000000 -9.633804 -3.273294 -0.000000 2.012489 -15.491011 -6.167871 22.614031 -8.986920 -2.730759 -17.484256 -5.742274 7.014303 -0.183299 -12.185699 8.282301 -2.358746 -0.000007 0.000005 -0.000000 0.000000 -0.000000 
-0.264390 93.613846 -0.702683 -5.850564 -5.647037 2.508257 0.000010 9.226306 1.577100 5.145748 1.469034 -1.610687 0.000000 16.253998 -0.165600 1.671194 0.478291 -0.503496 -0.000000 13.639600 -1.292295 1.740108 0.401080 -0.507049 0.000000 13.877378 -4.354197 0.918403 5.712771 -0.219401 -0.000000 4.339996 0.926901 0.000000 -0.000000 0.000000 0.000000 4.026576 0.858501 2.596972 -10.989435 4.394435 0.000000 21.748825 0.000000 0.000000 -0.000000 -0.000000 3.005701 7.261795 7.955601 0.000000 -0.000000 -0.000000 -3.005698 7.261795 7.955600 0.000000 -0.000000 -0.000000 0.000001 2.030289 2.456199 0.000000 -0.000000 -0.000000 6.144198 10.186984 -3.793199 -0.686141 -15.435427 -15.138944 2.315495 0.168960 -47.184193 0.000277 -75.133720 0.000229 -115.594859 0.864280 6.136898 2.421038 -1.395541 2.392355 -15.646029 -12.616700 3.712629 3.496505 -2.018694 2.018721 -1.578716 4.566733 0.219886 4.011403 -2.315975 2.315979 -4.304474 5.413117 13.335726 2.095803 -1.209995 1.209988 -0.000001 0.000000 0.000006 10.514777 -0.231354 2.264847 -3.825595 -0.036025 -40.777578 1.633442 4.059286 -43.825175 0.512908 2.399158 -24.130466 2.334334 0.000015 0.000016 -0.000003 -0.000000 0.000000 10.490772 -0.000013 -0.000002 -0.102409 4.558200 -44.067308 1.778962 4.205275 -45.844414 0.287869 1.815584 -18.016881 2.752054 -0.000044 0.000021 0.000004 -0.000001 -0.000001 10.240778 -0.046036 -2.314153 0.464610 5.344603 -48.347477 1.328083 3.708765 -39.425843 0.772018 2.919204 -29.733777 -0.000001 -0.000001 0.000001 9.820256 -0.209735 -4.418471 1.879481 6.634560 -52.438812 1.169095 3.513195 -36.801862 0.250356 1.695999 -16.793021 -0.000001 -0.000000 -0.000001 -6.140199 10.186964 -3.793199 0.390262 20.460935 9.651603 9.063665 27.031018 38.627780 -0.001137 88.120171 0.000809 -32.450871 -11.843884 18.611963 -9.791020 -0.212909 -4.378355 8.025919 -8.110914 73.541029 2.106018 -3.897966 56.750925 1.024215 -2.916075 38.704138 0.000001 0.000002 -0.000001 -10.391923 0.105162 -2.349905 6.660128 -8.454011 63.406934 2.873982 -4.303431 67.459026 1.831905 -3.704167 52.634759 -0.000000 0.000002 -0.000001 -10.779232 0.000016 -0.000014 0.749912 -5.171367 54.199569 5.528102 -4.576056 100.779591 4.733694 -4.657287 90.948149 0.000002 -0.000001 -0.000003 -10.577323 -0.175353 2.287342 -0.812954 1.691240 11.214440 1.848406 -3.716670 52.872607 3.011124 -4.357672 69.270153 -0.000001 0.000001 0.000002 -2.570418 -1.245112 2.319031 20.518621 7.514004 18.805838 -3.518814 -2.031542 2.031552 4.196367 -12.229198 -33.784349 -3.945262 -2.277762 2.277755 -6.206889 -41.841449 -36.469119 -0.000004 0.000001 0.000002 9.633796 -3.273297 0.000003 -12.390918 9.963025 5.543409 15.290405 7.986883 1.450971 3.979657 0.218685 -6.129148 -0.183301 -12.185707 8.282301 -0.000632 -0.000004 -0.000001 0.000000 0.000001 0.000000 -9.633804 -3.273294 0.000001 -1.112742 -14.178968 -5.017757 25.905311 -9.944353 -3.628064 -18.764785 -7.713191 6.343613 -0.183299 -12.185699 8.282300 -2.467752 0.000017 0.000007 -0.000000 0.000000 -0.000000 
-0.514339 92.361465 -2.258577 -3.678779 -3.873205 2.107983 0.000010 9.226320 1.577101 5.826138 -0.061116 -0.717677 0.000000 16.253988 -0.165601 2.483606 -0.253277 -0.127507 -0.000000 13.639585 -1.292295 2.672106 -0.548775 -0.209772 0.000000 13.877407 -4.354208 -2.228825 6.389075 -2.345536 -0.000000 4.340012 0.926899 0.000000 0.000000 0.000000 -0.000000 4.026618 0.858499 -3.715507 -10.773537 6.255397 -0.000002 21.748810 0.000001 -0.000000 0.000000 0.000001 3.005699 7.261795 7.955601 0.000000 0.000000 0.000001 -3.005702 7.261810 7.955601 0.000000 0.000000 0.000001 -0.000001 2.030304 2.456200 0.000000 0.000000 0.000001 6.144200 10.187025 -3.793210 -1.384323 -18.436144 -12.763566 -3.580634 2.789947 -50.272685 0.000124 -64.561018 0.000072 -107.966364 1.081856 -1.699608 2.421025 -1.395545 2.392351 -18.409824 -8.104486 3.754515 3.496536 -2.018673 2.018722 -4.199163 7.952368 2.107299 4.011414 -2.315979 2.315976 -1.479162 11.018470 12.979805 2.095786 -1.210009 1.209986 -0.000002 0.000001 0.000004 10.514784 -0.231389 2.264846 -2.340415 -4.011256 -18.664633 0.487006 2.340565 -23.504481 0.180159 1.443105 -14.230022 2.334353 0.000012 0.000010 0.000001 0.000001 0.000002 10.490774 -0.000032 -0.000004 -0.829736 0.947218 -20.193774 0.712541 2.802166 -28.528431 0.039126 0.676691 -6.617892 2.752049 -0.000042 0.000022 -0.000001 0.000001 0.000001 10.240752 -0.046058 -2.314152 -1.024200 0.560011 -20.916556 0.773593 2.904476 -29.855532 0.274981 1.785883 -17.617240 0.000001 -0.000002 -0.000000 9.820251 -0.209761 -4.418473 -0.473460 2.620014 -26.150102 0.733604 2.840512 -28.956222 0.045846 0.732376 -7.165281 0.000001 -0.000001 -0.000002 -6.140203 10.187012 -3.793211 0.155984 22.625854 7.645683 3.594445 30.731104 39.389086 -0.000211 79.109614 0.000173 -28.982228 -5.717513 15.384147 -9.791017 -0.212902 -4.378344 7.672786 -8.039658 73.126881 2.044324 -3.856870 55.838593 1.014620 -2.904062 38.514976 0.000002 -0.000001 0.000001 -10.391909 0.105179 -2.349891 6.384427 -8.352105 62.969700 2.843547 -4.290710 67.052889 1.807760 -3.685629 52.259895 0.000000 0.000000 0.000002 -10.779225 0.000024 -0.000003 0.732415 -5.147309 53.851575 5.491673 -4.582806 100.323027 4.694258 -4.657725 90.462570 0.000001 0.000000 -0.000001 -10.577317 -0.175349 2.287344 -0.743511 1.964101 9.885753 1.785782 -3.668533 51.900217 2.967826 -4.341086 68.699402 -0.000002 0.000000 0.000000 -2.570409 -1.245116 2.319035 20.659026 7.627542 18.693202 -3.518802 -2.031518 2.031562 4.328739 -12.429732 -33.595996 -3.945266 -2.277738 2.277757 -6.031405 -41.503662 -36.413145 -0.000001 -0.000003 -0.000003 9.633796 -3.273300 0.000004 -19.987638 7.144830 6.456458 23.081902 8.281987 1.473160 1.787274 0.335721 -6.678320 -0.183299 -12.185708 8.282297 -0.301832 -0.000005 0.000000 0.000000 0.000001 0.000000 -9.633806 -3.273289 0.000000 -8.560898 -12.060596 -3.311760 34.864964 -9.856538 -4.241419 -20.818528 -12.635082 1.810885 -0.183300 -12.185699 8.282300 -3.579165 0.000022 0.000004 -0.000000 0.000003 -0.000000 
-0.646736 90.083351 -4.563311 -1.142970 -1.674586 1.672686 0.000010 9.226317 1.577101 7.718564 -2.072102 0.281414 0.000000 16.253977 -0.165599 4.083265 -1.205242 0.389851 -0.000000 13.639598 -1.292299 4.301694 -1.782959 0.198171 -0.000001 13.877400 -4.354197 -6.254302 7.803439 -3.981099 -0.000000 4.340012 0.926901 -0.000001 -0.000000 0.000000 -0.000001 4.026626 0.858499 -10.597468 -10.773240 6.858167 0.000000 21.748825 0.000001 0.000000 -0.000000 -0.000000 3.005702 7.261826 7.955602 0.000000 -0.000000 -0.000000 -3.005697 7.261826 7.955603 0.000000 -0.000000 -0.000000 0.000001 2.030319 2.456201 0.000000 -0.000000 -0.000000 6.144195 10.187005 -3.793200 -1.857847 -21.583644 -10.370194 -10.006585 6.622825 -50.472632 0.000121 -59.050346 0.000083 -102.433645 -1.687039 -7.148902 2.421025 -1.395555 2.392364 -20.027424 -5.368170 4.020766 3.496509 -2.018688 2.018709 -5.777812 9.889350 3.419156 4.011405 -2.315996 2.315975 0.254071 14.409925 12.557401 2.095781 -1.210008 1.209981 0.000000 0.000002 0.000006 10.514781 -0.231384 2.264858 -0.724869 -5.956691 -5.719157 0.123072 1.195761 -11.751447 0.067074 0.884911 -8.668170 2.334338 0.000016 0.000015 0.000002 0.000001 -0.000001 10.490770 -0.000024 0.000009 -0.361905 -1.219676 -6.447448 0.310220 1.882898 -18.709772 0.000076 0.028566 -0.278740 2.752061 -0.000060 0.000021 0.000003 0.000001 -0.000000 10.240751 -0.046052 -2.314140 -0.366743 -2.475387 -5.118265 0.529066 2.427815 -24.616179 0.103714 1.109069 -10.796672 -0.000001 0.000001 0.000001 9.820259 -0.209768 -4.418456 -0.533136 -0.208718 -10.999296 0.536186 2.450441 -24.681122 0.002934 0.185589 -1.811243 0.000001 -0.000002 -0.000001 -6.140200 10.186986 -3.793199 0.069454 24.878194 5.621491 -4.670363 33.325432 39.641366 -0.000095 73.362297 0.000043 -24.706486 -2.368549 11.863134 -9.791017 -0.212901 -4.378347 7.313684 -7.958992 72.746405 1.988569 -3.818546 55.005644 1.012972 -2.901997 38.482543 0.000001 0.000002 0.000002 -10.391913 0.105179 -2.349890 6.117080 -8.245051 62.595187 2.818179 -4.279923 66.713518 1.789679 -3.671590 51.978173 -0.000001 -0.000001 -0.000001 -10.779230 0.000021 0.000010 0.718481 -5.127922 53.571926 5.455236 -4.589263 99.867454 4.653398 -4.657867 89.959547 0.000002 -0.000001 -0.000002 -10.577325 -0.175364 2.287354 -0.678320 2.245147 8.693315 1.729440 -3.623736 51.014034 2.929316 -4.325894 68.189542 -0.000001 -0.000000 0.000000 -2.570417 -1.245112 2.319060 20.888510 7.811950 18.509229 -3.518808 -2.031528 2.031558 4.547459 -12.753900 -33.286019 -3.945261 -2.277740 2.277761 -5.749308 -40.952407 -36.325408 0.000002 0.000002 0.000002 9.633797 -3.273318 0.000001 -30.245153 3.817922 6.747041 33.392624 7.884673 1.771680 1.314392 0.438398 -7.443877 -0.183298 -12.185705 8.282299 -2.297980 0.000001 0.000001 0.000000 0.000001 -0.000000 -9.633805 -3.273297 0.000004 -19.888988 -9.745381 -3.239117 48.212318 -9.859876 -3.608965 -17.930720 -16.722958 1.323108 -0.183298 -12.185700 8.282300 -9.680847 0.000006 0.000015 -0.000000 0.000002 -0.000001 
